<svg width="1024" height="1024" viewBox="0 0 1024 1024" xmlns="http://www.w3.org/2000/svg">
  <rect width="1024" height="1024" rx="220" fill="#C47830"/>
  <g transform="translate(512,512) rotate(-45) translate(-90,-250)">
    <!-- Fork -->
    <rect x="15" y="0" width="16" height="180" rx="8" fill="white"/>
    <rect x="55" y="0" width="16" height="180" rx="8" fill="white"/>
    <rect x="95" y="0" width="16" height="180" rx="8" fill="white"/>
    <rect x="10" y="170" width="106" height="20" rx="10" fill="white"/>
    <rect x="42" y="185" width="42" height="320" rx="21" fill="white"/>
  </g>
  <g transform="translate(512,512) rotate(45) translate(-50,-250)">
    <!-- Knife -->
    <path d="M30,0 Q55,0 55,30 L55,200 L30,200 Z" fill="white"/>
    <path d="M30,0 Q5,0 5,30 L5,100 Q5,200 30,200 Z" fill="rgba(255,255,255,0.85)"/>
    <rect x="17" y="195" width="42" height="310" rx="21" fill="white"/>
  </g>
</svg>